<svg xmlns="http://www.w3.org/2000/svg" width="853.333" height="853.333" version="1.0" viewBox="0 0 640 640"><path d="M312.9 262.8c-3.6 2.3-33.3 33.1-33.7 34.8-.5 2.2 2.7 2.8 4.7 1 1-.9 2.1-1.6 2.4-1.6.4 0 .7 8.1.7 17.9 0 17.6.1 18.1 2.4 20.8 2.3 2.6 2.9 2.8 10.3 2.8h7.8l-.2-13.7c-.2-7.5 0-14.4.3-15.2.9-2.4 19.9-2.3 20.8 0 .3.9.6 7.8.6 15.5V339h6c6.6 0 11.3-1.8 13-4.9.6-1.2 1-9.4 1-19.5 0-9.7.2-17.6.5-17.6s1.7.7 3 1.6c2.5 1.7 4.8 1.1 4.3-1.1-.4-1.6-30.3-32.5-33.7-34.7-1.4-1-3.7-1.8-5.1-1.8-1.4 0-3.7.8-5.1 1.8zM236 359.2c0 1.9 1.6 6.5 3.7 10.5 3.4 6.7 4 7.3 6.8 7.3s3.4-.6 6.8-7.5c3.9-7.9 4.8-13.5 2.2-13.5-1 0-1.5 1-1.5 3.2-.1 3.5-5.8 15.3-7.5 15.3-1.4 0-8.4-13.5-8.5-16.3 0-3.5-2-2.6-2 1zM261.5 357.4c-2.7 1.9-3.4 13.5-1.1 17.1 1.5 2.3 2.2 2.5 9.5 2.5 9.6 0 10.4-.7 10.9-10 .6-9.3-1.1-11-10.6-11-4.2 0-7.5.5-8.7 1.4zm16.3 8.9c.3 7.7-.2 8.2-8.4 8.6-6.6.3-7.6-.9-7.2-9.1l.3-6.3 5-.5c2.8-.3 6.1-.3 7.5.1 2.3.5 2.5 1 2.8 7.2zM284 366.4V377h10.5c12.8 0 14.2-1.8 1.8-2.2l-8.8-.3-.5-8.9c-.3-5.9-.9-9.1-1.7-9.4-1-.3-1.3 2.2-1.3 10.2z"/><path d="M307 366.5c0 8.7.3 10.5 1.5 10.5 1 0 1.5-1 1.5-3v-3h7.1c3.9 0 7.9-.5 8.9-1 3.7-2 3.4-10.7-.4-13.2-.6-.4-5-.8-9.8-.8H307v10.5zm17.1-7.5c2 1.1 2.6 5.4 1 7.8-.5.9-3.2 1.4-7.7 1.4l-6.9.1-.3-4.6c-.2-3.7 0-4.6 1.5-5 3.4-.9 10.4-.7 12.4.3zM334.4 356.8c-2.4 1.5-3.4 5.4-3.4 12.6 0 5.9.3 7.6 1.4 7.6.9 0 1.6-1.2 1.8-2.8.3-2.7.4-2.7 8.1-3l7.7-.3v3.1c0 2 .5 3 1.5 3 1.2 0 1.5-1.6 1.5-8.5 0-11.2-1.2-12.5-10.7-12.5-3.8 0-7.3.4-7.9.8zm13 2.2c2.2.8 2.6 1.6 2.6 5 0 2.2-.4 4-1 4.1-.5 0-4 .1-7.7.1-6.3.1-6.8-.1-7.1-2.1-.7-4.6.6-6.9 4.1-7.4 5.9-.7 6.6-.7 9.1.3zM356 366.5c0 8.5.3 10.5 1.4 10.5.9 0 1.6-1.2 1.8-2.8.3-2.5.7-2.7 5.2-3 4.3-.3 5.2 0 8.2 2.9 3.8 3.7 6.6 3.6 3.6-.1-2-2.5-2-2.6-.1-4.9 2.5-3.1 2.5-8.5-.1-11.1-1.7-1.7-3.3-2-11-2h-9v10.5zm18.5-3v4l-7.7.3-7.8.3v-9.2l7.8.3 7.7.3v4zM379.2 357.2c.3.7 2.3 1.4 4.6 1.6l4.2.3v9c0 7.2.3 8.9 1.5 8.9s1.5-1.7 1.5-8.9v-9l4.2-.3c2.3-.2 4.3-.9 4.6-1.6.3-.9-2.2-1.2-10.3-1.2-8.1 0-10.6.3-10.3 1.2z"/></svg>